<?xml version="1.0" encoding="utf-8"?>
<!-- Generator: Adobe Illustrator 16.0.0, SVG Export Plug-In . SVG Version: 6.00 Build 0)  -->
<!DOCTYPE svg PUBLIC "-//W3C//DTD SVG 1.1//EN" "http://www.w3.org/Graphics/SVG/1.1/DTD/svg11.dtd">
<svg version="1.1" id="Layer_1" xmlns="http://www.w3.org/2000/svg" xmlns:xlink="http://www.w3.org/1999/xlink" x="0px" y="0px"
	 width="317.143px" height="237.143px" viewBox="0 0 317.143 237.143" enable-background="new 0 0 317.143 237.143"
	 xml:space="preserve">
<g>
	<g>
		<path fill="#EAEAF6" d="M200.207,99.176c-34.488-20.841-50.768-84.874-104.01-46.61c-53.243,38.264-31.166,116.877,19.856,135.89
			c51.021,19.013,116.665,8.272,135.138-27.047C282.756,101.058,223.342,113.158,200.207,99.176z"/>
		<g>
			<defs>
				<path id="SVGID_1_" d="M200.207,99.176c-34.488-20.841-50.768-84.874-104.01-46.61c-53.243,38.264-31.166,116.877,19.856,135.89
					c51.021,19.013,116.665,8.272,135.138-27.047C282.756,101.058,223.342,113.158,200.207,99.176z"/>
			</defs>
			<clipPath id="SVGID_2_">
				<use xlink:href="#SVGID_1_"  overflow="visible"/>
			</clipPath>
			<path clip-path="url(#SVGID_2_)" fill="#DFE0F1" d="M60.302,173.258c0,0,29.412-29.491,78.535-15.498
				c49.123,13.994,78.045,1.997,71.945-72.159c0,0,69.044,9.633,60.192,58.693C260.231,203.833,121.565,226.552,60.302,173.258z"/>
		</g>
		<g>
			<g>
				<path fill="#C7CBE7" d="M124.715,52.077v28.76c0,2.48-2.013,4.484-4.493,4.484H58.896c-2.481,0-4.493-2.004-4.493-4.484v-28.76
					c0-2.48,2.012-4.485,4.493-4.485h61.326C122.703,47.592,124.715,49.597,124.715,52.077z"/>
			</g>
			<g>
				<path fill="#9AB5DE" d="M124.715,52.077v2.489H54.403v-2.489c0-2.48,2.012-4.485,4.493-4.485h61.326
					C122.703,47.592,124.715,49.597,124.715,52.077z"/>
				<g>
					<circle fill="#FFFFFF" cx="58.366" cy="51.411" r="0.942"/>
					<circle fill="#FFFFFF" cx="62.136" cy="51.411" r="0.942"/>
					<circle fill="#FFFFFF" cx="65.907" cy="51.411" r="0.942"/>
				</g>
			</g>
			<path fill="#FFFFFF" d="M78.078,71.829H63.96c-0.461,0-0.834-0.374-0.834-0.834V59.569c0-0.46,0.374-0.834,0.834-0.834h14.118
				c0.461,0,0.834,0.374,0.834,0.834v11.425C78.912,71.456,78.539,71.829,78.078,71.829z"/>
			<g>
				<path fill="#FFFFFF" d="M114.993,77.955H63.129c-0.548,0-0.993-0.444-0.993-0.992l0,0c0-0.548,0.444-0.993,0.993-0.993h51.864
					c0.548,0,0.992,0.444,0.992,0.993l0,0C115.985,77.511,115.541,77.955,114.993,77.955z"/>
			</g>
			<g>
				<path fill="#FFFFFF" d="M114.993,70.462H83.528c-0.548,0-0.992-0.444-0.992-0.993l0,0c0-0.548,0.444-0.992,0.992-0.992h31.465
					c0.548,0,0.992,0.444,0.992,0.992l0,0C115.985,70.018,115.541,70.462,114.993,70.462z"/>
			</g>
			<g>
				<path fill="#FFFFFF" d="M103.016,63.422H83.528c-0.548,0-0.992-0.444-0.992-0.992l0,0c0-0.548,0.444-0.993,0.992-0.993h19.488
					c0.548,0,0.992,0.444,0.992,0.993l0,0C104.008,62.978,103.564,63.422,103.016,63.422z"/>
			</g>
		</g>
		
			<path fill="none" stroke="#E7E8F4" stroke-width="0.8987" stroke-linecap="round" stroke-linejoin="round" stroke-miterlimit="10" d="
			M25.476,107.203c0,0,1.146-1.317,1.848-1.921c1.264-1.088,2.714-3.01,7.353-1.593c0.36,0.11,0.709,0.256,1.057,0.403
			c0.409,0.173,1.675,0.178,2.973-0.852c2.061-1.637,2.867-2.872,5.691-2.91c3.286-0.044,3.802,4.052,6.356,5.1
			c1.625,0.667,5.913,1.331,6.8,1.626L25.476,107.203z"/>
		<path fill="#E7E8F4" d="M199.851,48.373c0,0,2.252-2.591,3.633-3.778c2.486-2.138,5.338-5.917,14.456-3.132
			c0.708,0.217,1.395,0.504,2.077,0.793c0.804,0.341,3.294,0.35,5.844-1.676c4.053-3.217,5.638-5.645,11.189-5.721
			c6.46-0.088,7.476,7.965,12.496,10.026c3.195,1.312,11.625,2.616,13.368,3.197L199.851,48.373z"/>
		<g>
			<path fill="#FFFFFF" d="M150.01,72.435l-0.466-1.334l-0.466,1.334c-0.393,1.125-1.326,2.075-2.589,2.636l0,0l0,0
				c1.263,0.561,2.196,1.511,2.589,2.636l0.466,1.334l0.466-1.334c0.393-1.125,1.326-2.075,2.589-2.636l0,0l0,0
				C151.336,74.51,150.403,73.56,150.01,72.435z"/>
			<path fill="#FFFFFF" d="M107.908,148.731l-0.466-1.335l-0.466,1.335c-0.393,1.125-1.326,2.074-2.589,2.636l0,0l0,0
				c1.263,0.561,2.196,1.511,2.589,2.636l0.466,1.335l0.466-1.335c0.393-1.125,1.326-2.075,2.589-2.636l0,0l0,0
				C109.234,150.805,108.3,149.856,107.908,148.731z"/>
			<path fill="#FFFFFF" d="M234.132,140.692l-0.308-0.88l-0.308,0.88c-0.259,0.742-0.875,1.369-1.708,1.739l0,0l0,0
				c0.833,0.37,1.449,0.997,1.708,1.739l0.308,0.881l0.308-0.881c0.259-0.742,0.874-1.369,1.708-1.739l0,0l0,0
				C235.006,142.061,234.391,141.434,234.132,140.692z"/>
			<path fill="#FFFFFF" d="M87.558,96.402l-0.308-0.88l-0.308,0.88c-0.259,0.743-0.875,1.369-1.708,1.739l0,0l0,0
				c0.833,0.37,1.449,0.997,1.708,1.739l0.308,0.881l0.308-0.881c0.259-0.742,0.875-1.369,1.708-1.739l0,0l0,0
				C88.433,97.771,87.817,97.145,87.558,96.402z"/>
		</g>
		<g>
			<path fill="#9AB5DE" d="M187.301,24.234h-29.188c-1.592,0-2.883,1.287-2.883,2.878v15.769c0,1.591,1.291,2.877,2.883,2.877h1.571
				v7.215l7.215-7.215h20.401c1.592,0,2.883-1.286,2.883-2.877V27.112C190.184,25.521,188.893,24.234,187.301,24.234z"/>
			<g>
				<path fill="#FFFFFF" d="M162.21,39.681h6.886c0.531,0,0.962,0.431,0.962,0.962l0,0c0,0.531-0.431,0.961-0.962,0.961h-6.886
					c-0.531,0-0.962-0.431-0.962-0.961l0,0C161.249,40.111,161.679,39.681,162.21,39.681z"/>
			</g>
			<g>
				<path fill="#FFFFFF" d="M162.21,34.864h12.688c0.531,0,0.962,0.431,0.962,0.962l0,0c0,0.531-0.431,0.961-0.962,0.961H162.21
					c-0.531,0-0.962-0.431-0.962-0.961l0,0C161.249,35.294,161.679,34.864,162.21,34.864z"/>
			</g>
			<g>
				<path fill="#FFFFFF" d="M162.21,30.182h21.813c0.531,0,0.962,0.431,0.962,0.961l0,0c0,0.531-0.431,0.962-0.962,0.962H162.21
					c-0.531,0-0.962-0.431-0.962-0.962l0,0C161.249,30.613,161.679,30.182,162.21,30.182z"/>
			</g>
		</g>
		<g>
			<path fill="#C5C9E6" d="M169.208,159.54h33.798c6.782,0,12.478-5.104,13.217-11.847l4.874-50.731h-33.779l-0.689,29.415
				L169.208,159.54z"/>
			<g>
				<path fill="#3E425B" d="M169.208,158.993c0,0,1.628-0.059,4.477-0.163c1.425-0.043,3.154-0.095,5.139-0.155
					c1.984-0.072,4.223-0.092,6.665-0.146c2.441-0.047,5.087-0.099,7.885-0.152c2.799-0.025,5.749-0.051,8.802-0.078l0.573-0.004
					l0.229-0.003l0.287-0.016c0.37-0.029,0.803-0.023,1.124-0.082c0.33-0.06,0.653-0.088,0.993-0.164
					c0.341-0.09,0.688-0.162,1.027-0.262c1.358-0.411,2.656-1.074,3.802-1.955c2.303-1.747,3.993-4.364,4.55-7.254l0.168-1.08
					l0.119-1.215l0.238-2.425c0.158-1.613,0.315-3.221,0.472-4.816c0.316-3.189,0.629-6.328,0.931-9.365
					c0.646-6.071,1.248-11.737,1.765-16.594c0.553-4.854,1.014-8.898,1.336-11.729c0.341-2.83,0.536-4.446,0.536-4.446
					c0.051-0.425,0.438-0.729,0.862-0.677c0.412,0.05,0.71,0.416,0.681,0.826c0,0-0.116,1.624-0.32,4.467
					c-0.223,2.841-0.54,6.899-0.922,11.768c-0.417,4.867-0.904,10.544-1.426,16.627c-0.282,3.039-0.574,6.181-0.87,9.372
					c-0.15,1.595-0.302,3.203-0.454,4.817l-0.229,2.426l-0.114,1.215c-0.058,0.461-0.132,0.889-0.2,1.334
					c-0.673,3.517-2.701,6.757-5.537,8.852c-1.413,1.051-3.006,1.833-4.662,2.306c-0.415,0.116-0.837,0.2-1.253,0.299
					c-0.423,0.087-0.877,0.129-1.313,0.189c-0.444,0.059-0.789,0.042-1.187,0.066l-0.287,0.012h-0.347l-0.573-0.004
					c-3.053-0.027-6.003-0.053-8.802-0.078c-2.798-0.054-5.443-0.105-7.885-0.152c-2.442-0.055-4.681-0.074-6.665-0.146
					c-1.984-0.061-3.714-0.112-5.139-0.155c-2.849-0.104-4.477-0.163-4.477-0.163c-0.302-0.011-0.538-0.265-0.526-0.566
					C168.691,159.232,168.924,159.004,169.208,158.993z"/>
			</g>
			
				<line fill="none" stroke="#3E425B" stroke-width="2.4961" stroke-miterlimit="10" x1="188.534" y1="160.498" x2="188.534" y2="196.326"/>
		</g>
		<g>
			<rect x="85.967" y="126.932" fill="#3E425B" width="108.948" height="1.694"/>
			<polygon fill="#E2BC9A" points="182.066,203.089 183.223,207.234 177.593,208.94 175.833,203.823 			"/>
			<polygon fill="#E2BC9A" points="148.079,200.081 148.079,203.409 153.063,203.409 153.619,200.081 			"/>
			<g>
				<g>
					<path fill="#D9AD8A" d="M186.361,103.801l-7.528,18.582l-0.167,0.413c-0.447,1.105-1.521,1.773-2.645,1.769l-21.437-0.153
						c-0.867-0.007-1.564-0.714-1.559-1.581c0.006-0.786,0.588-1.433,1.343-1.542l21.212-3.098l-2.812,2.182l5.067-19.398
						c0.628-2.404,3.087-3.845,5.491-3.217c2.404,0.628,3.845,3.087,3.217,5.492C186.497,103.431,186.429,103.631,186.361,103.801z"
						/>
					<path fill="#D9AD8A" d="M156.914,120.917l-7.32-0.151c-1.81,0-3.277,1.634-3.277,3.649l0,0h10.69L156.914,120.917z"/>
				</g>
				<g>
					<path fill="#706DB2" d="M174.509,106.063l11.721,2.862l1.923-10.447c0.517-2.807-1.438-5.477-4.313-5.892l0,0
						c-2.419-0.349-4.754,1.023-5.584,3.281L174.509,106.063z"/>
				</g>
			</g>
			<path fill="#303348" d="M186.627,126.376l-36.113,18.327c-3.352,1.7-5.376,5.227-5.156,8.979l2.721,46.398h5.54l7.476-49.645
				l28.116-19.741L186.627,126.376z"/>
			<path fill="#282C3C" d="M180.254,63.005c0,0,10.036-3.412,15.309,6.092c0.306,0.552,0.642,1.083,1.05,1.565
				c1.071,1.265,3.303,3.594,5.765,4.349c9.767,2.997,15.947,21.464-3.493,23.107c-24.328,2.057-31.236-2.741-27.756-12.439
				c2.482-6.917,0.266-11.826,0.266-11.826L180.254,63.005z"/>
			<path fill="#5958A6" d="M188.266,87.791l-5.192,2.311c-3.093,1.375-5.076,4.453-5.036,7.836
				c0.08,6.818,1.627,23.746,7.387,30.225h17.558c2.719-11.994,1.152-30.426,1.152-30.426c0.175-4.52-3.148-8.417-7.639-8.957
				L188.266,87.791z"/>
			<g>
				<g>
					<g>
						<path fill="#DDB38D" d="M188.75,93.381L188.75,93.381c-1.829,0.212-3.489-1.086-3.723-2.913l-1.429-11.159l6.679-0.776
							l1.419,11.082C191.933,91.472,190.609,93.165,188.75,93.381z"/>
						<path fill="#E2BC9A" d="M183.235,87.638l-0.267,0.035c-4.451,0.58-8.529-2.558-9.109-7.009l-1.269-9.723l16.386-2.136
							l1.268,9.724C190.824,82.979,187.686,87.057,183.235,87.638z"/>
					</g>
					<path fill="#282C3C" d="M190.775,74.793l-1.397,2.898c0,0-1.861,1.613-2.389-2.44c-0.447-3.433-2.939-2.837-2.939-2.837
						s-8.538,6.459-13.554,2.027c-3.958-3.498,2.439-9.9,9.759-11.436l9.602,4.195L190.775,74.793z"/>
					<circle fill="#E2BC9A" cx="191.1" cy="77.483" r="2.71"/>
					<circle fill="#FFFFFF" cx="191.1" cy="78.692" r="0.488"/>
				</g>
				<path fill="#FFFFFF" d="M176.768,82.93l4.599-0.979c0,0,0.222,1.998-2.297,2.358C177.083,84.595,176.768,82.93,176.768,82.93z"
					/>
			</g>
			<path fill="#3E425B" d="M202.982,128.163h-17.558l-28.087,16.971c-3.312,2.001-4.624,6.148-3.065,9.69l21.561,48.999l6.233-0.733
				l-11.588-47.283c9.726-0.411,27.784-1.88,32.504-7.14C210.967,139.766,202.982,128.163,202.982,128.163z"/>
			<g>
				<path fill="#9AB5DE" d="M143.105,97.416l10.018,26.922h-32.558l-9.268-25.36c-0.277-0.759,0.285-1.563,1.093-1.563H143.105z"/>
				<path fill="#ACC7E8" d="M143.105,97.416h1.559c0.837,0,1.585,0.522,1.875,1.307l9.445,25.615h-2.861L143.105,97.416z"/>
				<path fill="#85A6D7" d="M123.005,126.932h30.117v-2.594h-32.468v0.243C120.655,125.879,121.708,126.932,123.005,126.932z"/>
				<path fill="#92B5E0" d="M153.123,126.932h20.092c0.716,0,1.297-0.581,1.297-1.297l0,0c0-0.717-0.581-1.297-1.297-1.297h-20.092
					V126.932z"/>
				
					<ellipse transform="matrix(0.9493 -0.3142 0.3142 0.9493 -28.4092 47.1905)" fill="#EDF2F5" cx="132.174" cy="111.717" rx="2.923" ry="3.548"/>
			</g>
			<g>
				<g>
					<path fill="#E2BC9A" d="M200.099,103.293l-7.542,18.938l-0.166,0.418c-0.447,1.123-1.533,1.805-2.673,1.8l-21.44-0.141
						c-0.875-0.006-1.579-0.72-1.573-1.595c0.005-0.793,0.592-1.444,1.353-1.557l21.208-3.14l-2.839,2.218l5.054-19.749
						c0.622-2.43,3.096-3.896,5.526-3.274c2.43,0.622,3.896,3.096,3.273,5.526C200.233,102.921,200.167,103.122,200.099,103.293z"/>
					<path fill="#E2BC9A" d="M170.604,120.764l-7.32-0.154c-1.81,0-3.276,1.665-3.276,3.718l0,0h10.69L170.604,120.764z"/>
				</g>
				<g>
					<path fill="#706DB2" d="M188.2,105.633l11.721,2.916l1.923-10.641c0.518-2.859-1.437-5.579-4.312-6.001l0,0
						c-2.419-0.355-4.754,1.042-5.584,3.342L188.2,105.633z"/>
				</g>
			</g>
			<path fill="#2A333E" d="M173.939,204.963l-2.735,2.7l-6.146,1.495c-0.633,0.154-1.146,0.618-1.361,1.233l-0.312,0.89
				c-0.155,0.441,0.179,0.902,0.646,0.893l19.781-0.48c0.645-0.014,1.144-0.566,1.091-1.208l-1.559-5.604l-2.989,0.715
				c-1,0.332-2.094,0.219-3.004-0.312l-1.063-0.619C175.528,204.223,174.565,204.345,173.939,204.963z"/>
			<path fill="#2A333E" d="M145.546,201.077l-2.734,2.7l-6.146,1.495c-0.633,0.154-1.146,0.618-1.361,1.233l-0.312,0.89
				c-0.155,0.441,0.179,0.902,0.646,0.893l17.905-0.377c0.644-0.014,1.144-0.567,1.091-1.209l-0.465-5.725l-2.207,0.733
				c-1,0.332-2.094,0.219-3.004-0.312l-1.063-0.619C147.136,200.336,146.173,200.458,145.546,201.077z"/>
		</g>
		<g>
			<path fill="#4F55A5" d="M229.327,85.146h50.257c1.705,0,3.087-1.381,3.087-3.086V67.806c0-1.704-1.382-3.086-3.087-3.086h-50.257
				c-1.704,0-3.086,1.382-3.086,3.086V82.06C226.241,83.765,227.623,85.146,229.327,85.146z"/>
			<g>
				<path fill="#FFFFFF" d="M265.156,80.794h10.398c0.538,0,0.974-0.436,0.974-0.974v-9.774c0-0.539-0.436-0.974-0.974-0.974
					h-10.398c-0.538,0-0.974,0.436-0.974,0.974v9.774C264.182,80.358,264.618,80.794,265.156,80.794z"/>
				<g>
					<path fill="#FFFFFF" d="M233.223,71.526h26.849c0.464,0,0.841-0.376,0.841-0.84l0,0c0-0.464-0.377-0.84-0.841-0.84h-26.849
						c-0.464,0-0.84,0.376-0.84,0.84l0,0C232.383,71.149,232.759,71.526,233.223,71.526z"/>
					<g>
						<path fill="#FFFFFF" d="M250.701,75.773h9.371c0.464,0,0.841-0.376,0.841-0.84v0c0-0.464-0.377-0.84-0.841-0.84h-9.371
							c-0.465,0-0.841,0.376-0.841,0.84v0C249.86,75.397,250.236,75.773,250.701,75.773z"/>
						<path fill="#FFFFFF" d="M233.223,75.773h11.203c0.464,0,0.84-0.376,0.84-0.84v0c0-0.464-0.376-0.84-0.84-0.84h-11.203
							c-0.464,0-0.84,0.376-0.84,0.84v0C232.383,75.397,232.759,75.773,233.223,75.773z"/>
					</g>
					<path fill="#FFFFFF" d="M239.945,80.021h20.127c0.464,0,0.841-0.376,0.841-0.84l0,0c0-0.464-0.377-0.84-0.841-0.84h-20.127
						c-0.464,0-0.84,0.376-0.84,0.84l0,0C239.105,79.644,239.481,80.021,239.945,80.021z"/>
				</g>
			</g>
		</g>
		<g>
			<path fill="#9AB5DE" d="M104.21,118.773c0,0,8.284,0.029,6.563-8.497C110.773,110.276,102.083,111.136,104.21,118.773z"/>
			<path fill="#9AB5DE" d="M103.172,118.316c0,0-8.387,0.029-6.644-8.603C96.529,109.713,105.327,110.583,103.172,118.316z"/>
			<path fill="#85A6D7" d="M103.557,118.345c0,0-6.107-6.154,1.096-11.579C104.653,106.766,110.44,113.923,103.557,118.345z"/>
			<polygon fill="#5958A6" points="110.258,117.624 96.857,117.624 98.991,126.927 107.954,126.927 			"/>
		</g>
	</g>
	
		<line fill="none" stroke="#3E425B" stroke-width="2" stroke-miterlimit="10" x1="136.888" y1="128.626" x2="136.888" y2="194.251"/>
</g>
</svg>
